{"title":"Lourdes.2009.SWESUB.DVDRip.XviD.AC3.(5.1)-Zen_Bud.avi","uid":5721274,"size":1471440382,"categoryP":"video","categoryS":"movies","magnet":"?xt=urn:btih:c43c98b849a242447ee1862055c8d38fc520a984&amp;dn=Lourdes.2009.SWESUB.DVDRip.XviD.AC3.%285.1%29-Zen_Bud.avi&amp;tr=udp%3A%2F%2Ftracker.openbittorrent.com%3A80&amp;tr=udp%3A%2F%2Fopen.demonii.com%3A1337&amp;tr=udp%3A%2F%2Ftracker.coppersurfer.tk%3A6969&amp;tr=udp%3A%2F%2Fexodus.desync.com%3A6969","seeders":0,"leechers":1,"uploader":"lenbe","files":1,"time":1280302733,"description":"General\nComplete name                    : Lourdes.2009.avi\nFormat                           : AVI\nFile size                        : 1.37 GiB\nDuration                         : 1h 39mn\nOverall bit rate                 : 1 976 Kbps\n\n\nVideo\n\nFormat                           : MPEG-4 Visual\nDuration                         : 1h 39mn\nBit rate                         : 1 517 Kbps\nWidth                            : 720 pixels\nHeight                           : 388 pixels\nDisplay aspect ratio             : 1.856\nStream size                      : 1.05 GiB (77%)\nWriting library                  : XviD 1.2.1 (UTC 2008-12-04)\n\nAudio\n\nFormat                           : AC-3\nDuration                         : 1h 39mn\nBit rate                         : 448 Kbps\nChannel(s)                       : 6 channels\nChannel positions                : Front: L C R, Side: L R, LFE\nSampling rate                    : 48.0 KHz\nStream size                      : 318 MiB (23%)","torrent":{"xt":"urn:btih:c43c98b849a242447ee1862055c8d38fc520a984","amp;dn":"Lourdes.2009.SWESUB.DVDRip.XviD.AC3.%285.1%29-Zen_Bud.avi","amp;tr":["udp%3A%2F%2Ftracker.openbittorrent.com%3A80","udp%3A%2F%2Fopen.demonii.com%3A1337","udp%3A%2F%2Ftracker.coppersurfer.tk%3A6969","udp%3A%2F%2Fexodus.desync.com%3A6969"],"infoHash":"c43c98b849a242447ee1862055c8d38fc520a984","infoHashBuffer":{"type":"Buffer","data":[196,60,152,184,73,162,66,68,126,225,134,32,85,200,211,143,197,32,169,132]},"announce":[],"urlList":[]}}